<?xml version="1.0" encoding="UTF-8"?>
<!DOCTYPE svg PUBLIC "-//W3C//DTD SVG 1.1//EN" "http://www.w3.org/Graphics/SVG/1.1/DTD/svg11.dtd">
<!-- Creator: CorelDRAW -->
<svg xmlns="http://www.w3.org/2000/svg" xml:space="preserve" width="6.3499mm" height="7.7025mm" version="1.1" style="shape-rendering:geometricPrecision; text-rendering:geometricPrecision; image-rendering:optimizeQuality; fill-rule:evenodd; clip-rule:evenodd"
viewBox="0 0 11.19 13.58"
 xmlns:xlink="http://www.w3.org/1999/xlink"
 xmlns:xodm="http://www.corel.com/coreldraw/odm/2003">
 <defs>
  <style type="text/css">
   <![CDATA[
    .fil0 {fill:white}
   ]]>
  </style>
 </defs>
 <g id="Layer_x0020_1">
  <metadata id="CorelCorpID_0Corel-Layer"/>
  <path class="fil0" d="M8.84 12.62c-1.03,0.66 -5.01,1.89 -7.71,-0.22 -2.7,-2.11 -0.22,-11.97 3.58,-12.38 3.8,-0.42 4.33,8.17 4.79,7.93 0.46,-0.25 2.07,0.36 1.61,0.76 -0.46,0.4 -1.62,0.39 -2.11,0.01 -0.5,-0.38 -0.83,-3.18 -2.61,-3.05 -1.78,0.13 -3.3,5.58 -2.43,4.61 0.87,-0.98 7.22,0.05 4.89,2.35zm-6.39 -8.07c-0.19,2.11 2.38,-0.58 3.77,-0.71 1.15,-0.11 2.24,0.89 1.85,-0.2 -0.39,-1.09 -0.65,-2.6 -2.65,-2.58 -2,0.02 -2.77,1.25 -2.97,3.48z"/>
 </g>
</svg>
