<?xml version="1.0" encoding="UTF-8"?>
<!DOCTYPE svg PUBLIC "-//W3C//DTD SVG 1.1//EN" "http://www.w3.org/Graphics/SVG/1.1/DTD/svg11.dtd">
<!-- Creator: CorelDRAW -->
<svg xmlns="http://www.w3.org/2000/svg" xml:space="preserve" width="4.2334mm" height="5.1853mm" version="1.1" style="shape-rendering:geometricPrecision; text-rendering:geometricPrecision; image-rendering:optimizeQuality; fill-rule:evenodd; clip-rule:evenodd"
viewBox="0 0 2 2.45"
 xmlns:xlink="http://www.w3.org/1999/xlink"
 xmlns:xodm="http://www.corel.com/coreldraw/odm/2003">
 <defs>
  <style type="text/css">
   <![CDATA[
    .fil0 {fill:white}
   ]]>
  </style>
 </defs>
 <g id="Layer_x0020_1">
  <metadata id="CorelCorpID_0Corel-Layer"/>
  <g id="_2746927670976">
   <path class="fil0" d="M1.69 0.29c-0.05,0 -0.18,0.01 -0.21,-0 -0.02,0 -0.05,0.05 -0.08,0.07l-0.23 0.23 0 -0.3 -0.02 0c-0.01,-0.04 -0,-0.21 -0,-0.27 -0.12,-0 -0.22,-0 -0.33,-0l0 0.57c-0.02,-0.01 -0.03,-0.03 -0.05,-0.05 -0.01,-0.01 -0.01,-0.02 -0.02,-0.03 -0.01,-0.01 -0.02,-0.02 -0.03,-0.03l-0.13 -0.13c-0.04,-0.05 -0.14,-0.16 -0.18,-0.19 -0.02,0.03 -0.09,0.09 -0.12,0.12l-0.12 0.12 0.21 0.2c0.01,0.01 0.01,0.02 0.02,0.02 0.04,0.03 0.17,0.16 0.19,0.18l-0.6 0 0 0.34 0.6 0c-0.02,0.03 -0.08,0.08 -0.11,0.1 -0.04,0.03 -0.29,0.29 -0.32,0.31l0.24 0.24 0.02 -0.02c0,-0 0,-0 0,-0 0,-0 0,-0 0,-0 0,-0.01 0,-0 0.01,-0.01 0.05,-0.05 0.2,-0.2 0.26,-0.26 0.02,-0.02 0.27,-0.28 0.29,-0.29 0.02,0.02 0.48,0.47 0.54,0.54 0.01,0.01 0.03,0.02 0.03,0.04 0.02,-0.01 0.16,-0.15 0.19,-0.18 0.02,-0.02 0.05,-0.04 0.06,-0.07 -0.02,-0.01 -0.13,-0.13 -0.16,-0.15l-0.06 -0.05c-0.04,-0.04 -0.07,-0.07 -0.11,-0.11 -0.03,-0.03 -0.09,-0.07 -0.11,-0.1l0.6 0 0 -0.34 -0.6 0c0.02,-0.04 0.07,-0.07 0.1,-0.1 0.02,-0.02 0.03,-0.03 0.05,-0.05l0.16 -0.15c0.02,-0.02 0.03,-0.03 0.05,-0.05 0.02,-0.02 0.04,-0.03 0.05,-0.05 -0.02,-0.03 -0.08,-0.07 -0.11,-0.12 -0.01,-0.01 -0.01,-0.01 -0.02,-0.01z"/>
   <path class="fil0" d="M0.82 1.66l0 0.79 0.36 0 0 -0.8 -0.34 0c-0.01,0 -0.01,0 -0.01,0.01z"/>
   <path class="fil0" d="M0.82 0.02c0.11,0 0.21,0 0.33,0 0,0.06 -0.01,0.23 0,0.27l0.02 0 0 -0.29 -0.35 0 0 0.02z"/>
   <path class="fil0" d="M1.48 0.29c0.03,0.01 0.16,0 0.21,0 -0.01,-0.02 -0.01,-0.01 -0.03,-0.03 -0.01,-0.01 -0.02,-0.02 -0.03,-0.03 -0.02,-0.02 -0.04,-0.04 -0.06,-0.05 -0.01,0.02 -0.03,0.03 -0.05,0.05 -0.02,0.02 -0.04,0.04 -0.05,0.06z"/>
  </g>
 </g>
</svg>
