<?xml version="1.0" encoding="UTF-8"?>
<!DOCTYPE svg PUBLIC "-//W3C//DTD SVG 1.1//EN" "http://www.w3.org/Graphics/SVG/1.1/DTD/svg11.dtd">
<!-- Creator: CorelDRAW -->
<svg xmlns="http://www.w3.org/2000/svg" xml:space="preserve" width="4.2333mm" height="3.175mm" version="1.1" style="shape-rendering:geometricPrecision; text-rendering:geometricPrecision; image-rendering:optimizeQuality; fill-rule:evenodd; clip-rule:evenodd"
viewBox="0 0 2.96 2.22"
 xmlns:xlink="http://www.w3.org/1999/xlink"
 xmlns:xodm="http://www.corel.com/coreldraw/odm/2003">
 <defs>
  <style type="text/css">
   <![CDATA[
    .fil0 {fill:white}
   ]]>
  </style>
 </defs>
 <g id="Layer_x0020_1">
  <metadata id="CorelCorpID_0Corel-Layer"/>
  <path class="fil0" d="M0.49 0.63c0.04,0.02 0.08,0.07 0.12,0.1l0.62 0.51c0.04,0.03 0.08,0.07 0.12,0.1 0.15,0.12 0.13,0.11 0.27,-0.01 0.04,-0.03 0.08,-0.06 0.12,-0.1l0.48 -0.4c0.04,-0.03 0.08,-0.06 0.12,-0.1 0.04,-0.03 0.09,-0.08 0.13,-0.1l0 1.47 -1.98 0 0 -1.47zm-0.12 -0.14l0 1.6c-0.1,0 -0.25,0.02 -0.25,-0.14l0 -1.7c0,-0.16 0.17,-0.14 0.26,-0.14 0.03,0 0.37,0.29 0.41,0.33l0.54 0.45c0.19,0.15 0.14,0.11 0.43,-0.12 0.1,-0.08 0.18,-0.15 0.27,-0.22 0.03,-0.02 0.5,-0.43 0.54,-0.43 0.11,0 0.26,-0.02 0.26,0.14l0 1.7c0,0.16 -0.15,0.14 -0.25,0.14l0 -1.62c0,-0.16 -0.28,0.11 -0.32,0.14 -0.09,0.08 -0.17,0.14 -0.26,0.22l-0.39 0.32c-0.05,0.04 -0.08,0.08 -0.14,0.11l-0.52 -0.42c-0.06,-0.05 -0.49,-0.41 -0.53,-0.41 -0.04,0 -0.06,0.03 -0.06,0.06zm0.25 -0.37l1.73 0 -0.53 0.44c-0.04,0.03 -0.07,0.06 -0.11,0.09 -0.08,0.06 -0.14,0.12 -0.22,0.18l-0.86 -0.71zm-0.62 0.09l0 1.79c0,0.05 0.04,0.11 0.07,0.15 0.04,0.04 0.08,0.07 0.16,0.07l2.5 0c0.13,0 0.23,-0.1 0.23,-0.23l0 -1.76c0,-0.15 -0.13,-0.23 -0.22,-0.23l-2.53 0c-0.1,0 -0.22,0.12 -0.22,0.22z"/>
 </g>
</svg>
